<svg viewBox="0 0 256 256" style="fill:#f9f9f9"><path d="M 60,34 C 47,34 34,47 34,60 V 71.5 96 H 50 V 71.5 C 50,57.5 57.5,50 71.5,50 H 96 V 34 H 71.5 Z m 100,0 v 16 h 24.5 c 14,0 21.5,7.5 21.5,21.5 V 96 h 16 V 71.5 60 C 222,47 209,34 196,34 h -11.5 z m -32,62 c -42.5,0 -43,64 0,64 42,0 43,-64 0,-64 z m -94,64 v 24.5 11.5 c 0,13 13,26 26,26 H 71.5 96 V 206 H 71.5 C 57.5,206 50,198.5 50,184.5 V 160 Z m 172,0 v 24.5 c 0,14 -7.5,21.5 -21.5,21.5 H 160 v 16 h 24.5 11.5 c 13,0 26,-13 26,-26 V 184.5 160 Z"/></svg>
