<?xml version="1.0" encoding="UTF-8"?>
<!DOCTYPE svg PUBLIC "-//W3C//DTD SVG 1.1//EN" "http://www.w3.org/Graphics/SVG/1.1/DTD/svg11.dtd">
<svg xmlns="http://www.w3.org/2000/svg" version="1.1" width="100px" height="100px" style="shape-rendering:geometricPrecision; text-rendering:geometricPrecision; image-rendering:optimizeQuality; fill-rule:evenodd; clip-rule:evenodd" xmlns:xlink="http://www.w3.org/1999/xlink">
<g><path style="opacity:1" fill="#404040" d="M 34.5,3.5 C 44.5056,3.33352 54.5056,3.50019 64.5,4C 69.4476,4.30598 73.2809,6.47265 76,10.5C 77.3828,15.0801 78.3828,19.7468 79,24.5C 81.2806,41.7858 82.6139,59.1191 83,76.5C 79.5919,87.476 72.0919,93.6427 60.5,95C 46.8427,97.4831 34.1761,95.1498 22.5,88C 17.4018,82.7072 15.0684,76.3739 15.5,69C 17.2132,52.1547 19.0466,35.3214 21,18.5C 21.5545,9.78534 26.0545,4.78534 34.5,3.5 Z"/></g>
<g><path style="opacity:1" fill="#f6f6f6" d="M 46.5,34.5 C 46.5,36.8333 46.5,39.1667 46.5,41.5C 38.8333,41.5 31.1667,41.5 23.5,41.5C 24.4322,31.7467 25.9322,22.08 28,12.5C 29.1711,11.1068 30.6711,10.2735 32.5,10C 37.118,9.00601 41.7847,8.50601 46.5,8.5C 46.6567,9.87344 46.49,11.2068 46,12.5C 43.0545,15.526 41.8879,19.1927 42.5,23.5C 41.7159,28.131 43.0492,31.7977 46.5,34.5 Z"/></g>
<g><path style="opacity:1" fill="#f6f6f6" d="M 74.5,36.5 C 74.5,38.1667 74.5,39.8333 74.5,41.5C 67.1667,41.5 59.8333,41.5 52.5,41.5C 52.5,39.1667 52.5,36.8333 52.5,34.5C 54.1436,33.6836 55.3103,32.3502 56,30.5C 56.6667,25.5 56.6667,20.5 56,15.5C 53.259,13.9326 52.0923,11.5993 52.5,8.5C 59.1875,7.77733 65.3542,9.11067 71,12.5C 73.1517,20.3451 74.3183,28.3451 74.5,36.5 Z"/></g>
<g><path style="opacity:1" fill="#f4f4f4" d="M 46.5,14.5 C 49.0792,14.0833 51.2458,14.75 53,16.5C 53.6667,20.1667 53.6667,23.8333 53,27.5C 50.6667,30.1667 48.3333,30.1667 46,27.5C 45.2938,23.1132 45.4604,18.7799 46.5,14.5 Z"/></g>
<g><path style="opacity:1" fill="#939393" d="M 46.5,34.5 C 47.4731,36.9479 47.8064,39.6146 47.5,42.5C 39.3159,42.8257 31.3159,42.4924 23.5,41.5C 31.1667,41.5 38.8333,41.5 46.5,41.5C 46.5,39.1667 46.5,36.8333 46.5,34.5 Z"/></g>
<g><path style="opacity:1" fill="#979797" d="M 52.5,34.5 C 52.5,36.8333 52.5,39.1667 52.5,41.5C 59.8333,41.5 67.1667,41.5 74.5,41.5C 74.5,39.8333 74.5,38.1667 74.5,36.5C 75.4614,38.2646 75.7947,40.2646 75.5,42.5C 67.5,42.5 59.5,42.5 51.5,42.5C 51.1936,39.6146 51.5269,36.9479 52.5,34.5 Z"/></g>
<g><path style="opacity:1" fill="#888888" d="M 23.5,47.5 C 32.1602,46.8335 40.9936,46.5002 50,46.5C 59.1929,46.5018 68.0262,47.1685 76.5,48.5C 58.9101,47.5143 41.2434,47.181 23.5,47.5 Z"/></g>
<g><path style="opacity:1" fill="#d2d2d2" d="M 23.5,47.5 C 41.2434,47.181 58.9101,47.5143 76.5,48.5C 77.6642,57.1405 78.1642,65.8072 78,74.5C 75.1752,83.5153 69.0085,88.6819 59.5,90C 25.4903,94.1698 13.4903,80.0032 23.5,47.5 Z"/></g>
<g><path style="opacity:1" fill="#efefef" d="M 26.5,64.5 C 35.1361,73.0409 45.4695,75.8742 57.5,73C 63.0409,71.315 67.8743,68.4817 72,64.5C 72.239,67.697 71.0723,70.3637 68.5,72.5C 59.4465,77.3452 49.7799,78.8452 39.5,77C 32.3185,75.6498 27.9851,71.4831 26.5,64.5 Z"/></g>
</svg>
