<svg viewBox="0 0 256 256" style="fill:#f9f9f9"><path d="m 119,65.5 -5,44 H 78 c -10.5,0 -10.5,16.5 0,16.5 h 33 l -8.5,62 c -3,22.5 -42,22 -54.5,2 -5.5,-9 -19.5,-0.5 -13,8.5 20.5,33.5 79.5,28.5 84.5,-9.5 l 8.5,-64 H 162 c 10.5,0 10.5,-16.5 0,-16.5 h -31.5 l 5.5,-42 c 3,-22.5 42,-22 54.5,-2 5.5,9 19.5,0.5 13,-8.5 -20.5,-33.5 -79.5,-28.5 -84.5,9.5 z m 24.5,90 26.5,26.5 -26.5,26.5 c -7.5,7.5 3,18.5 11.5,11.5 l 26.5,-26.5 26.5,26.5 c 7.5,7.5 18.5,-3 11.5,-11.5 L 193.5,182 219.5,155.5 c 7.5,-7.5 -3,-18.5 -11.5,-11.5 L 182,170.5 155.5,144.5 c -7.5,-7.5 -18.5,3 -11.5,11.5 z"/></svg>
