<svg viewBox="0 0 256 256" style="fill:#f9f9f9"><path d="M 86,34 V 58 H 60 C 47,58 34,71 34,84 v 112 c 0,13 13,26 26,26 h 136 c 13,0 26,-13 26,-26 V 84 C 222,71 209,58 196,58 H 174.5 C 171,48.5 162,42 152,42 c -31.5,0 -31.5,48 0,48 10,0 19,-6.5 22.5,-16 h 9 c 14,0 21.5,7.5 21.5,21.5 v 89 c 0,14 -7.5,21.5 -21.5,21.5 H 71.5 C 57.5,206 50,198.5 50,184.5 v -89 C 50,81.5 57.5,74 71.5,74 H 86 v 24 l 42,-32 z m -8,92 c -10.5,0 -10.5,16 0,16 h 100 c 10.5,0 10.5,-16 0,-16 z m 0,32 c -10.5,0 -10.5,16 0,16 h 100 c 10.5,0 10.5,-16 0,-16 z"/></svg>
