<svg viewBox="0 0 256 256" xmlns="http://www.w3.org/2000/svg" style="fill:#f9f9f9"><path d="m 180,34 v 24 h -35 c -13,0 -26,13 -26,26 v 21.5 c -6,2.5 -12,7 -14.5,14.5 H 80.5 C 77,110.5 68,104 58,104 c -31.5,0 -31.5,48 0,48 10,0 19,-6.5 22.5,-16 h 23 c 2.5,6 7,12 14.5,14.5 V 172 c 0,13 13,26 26,26 h 35 v 24 l 42,-32 -42,-32 v 24 h -23.5 c -14,0 -21.5,-7.5 -21.5,-21.5 v -9 c 21,-7.5 21,-37.5 0,-45 V 95.5 C 135,81.5 142.5,74 156.5,74 H 180 v 24 l 42,-32 z m -41,94 c 0,15.5 -24,15.5 -24,0 0,-15.5 24,-15.5 24,0 z"/></svg>
