<svg viewBox="0 0 256 256" xmlns="http://www.w3.org/2000/svg" style="fill:#f9f9f9"><path d="M 60,34 C 47,34 34,47 34,60 v 50 c 0,13 13,26 26,26 h 44 V 120 H 71.5 C 57.5,120 50,112.5 50,98.5 v -27 C 50,57.5 57.5,50 71.5,50 h 113 c 14,0 21.5,7.5 21.5,21.5 v 27 c 0,14 -7.5,21.5 -21.5,21.5 H 152 v 16 h 44 c 13,0 26,-13 26,-26 V 60 C 222,47 209,34 196,34 Z m 68,31 -32,42 h 24 v 42.5 c 0,14 -7.5,21.5 -21.5,21.5 H 80.5 C 77,161.5 68,155 58,155 c -31.5,0 -31.5,48 0,48 10,0 19,-6.5 22.5,-16 H 110 c 13,0 26,-13 26,-26 v -54 h 24 z"/></svg>
