<svg viewBox="0 0 256 256" style="fill:#f9f9f9"><path d="M 86,34 V 58 H 60 C 47,58 34,71 34,84 v 34 c 0,13 13,26 26,26 h 45.5 c 2.5,6 7,12 14.5,14.5 V 172 c 0,13 13,26 26,26 h 34 v 24 l 42,-32 -42,-32 v 24 h -22.5 c -20,0 -21.5,-15 -21.5,-23.5 6,-2.5 12,-7 14.5,-14.5 H 196 c 13,0 26,-13 26,-26 V 84 C 222,71 209,58 196,58 H 174.5 C 171,48.5 162,42 152,42 c -31.5,0 -31.5,48 0,48 10,0 19,-6.5 22.5,-16 h 9 c 14,0 21.5,7.5 21.5,21.5 v 11 c 0,14 -7.5,21.5 -21.5,21.5 h -33 c -7.5,-21 -37.5,-21 -45,0 H 71.5 C 57.5,128 50,120.5 50,106.5 v -11 C 50,81.5 57.5,74 71.5,74 H 86 v 24 l 42,-32 z m 42,90 c 15.5,0 15.5,24 0,24 -15.5,0 -15.5,-24 0,-24 z"/></svg>
