<svg viewBox="0 0 16 16" xmlns="http://www.w3.org/2000/svg" style="fill:#f9f9f9"><rect width="2" height="2" x="1" y="2" ry="0.5"/><rect width="2" height="2" x="7" y="2" ry="0.5"/><rect width="2" height="2" x="10" y="2" ry="0.5"/><rect width="2" height="2" x="13" y="2" ry="0.5"/><rect width="3" height="2" x="1" y="6" ry="0.5"/><rect width="2" height="2" x="5" y="6" ry="0.5"/><rect width="2" height="2" x="8" y="6" ry="0.5"/><rect width="4" height="2" x="11" y="6" ry="0.5" /><rect width="4" height="2" x="1" y="9" ry="0.5"/><rect width="2" height="2" x="6" y="9" ry="0.5"/><rect width="2" height="2" x="9" y="9" ry="0.5"/><rect width="3" height="4" x="12" y="7" ry="0.5"/><rect width="2" height="2" x="1" y="12" ry="0.5"/><rect width="8" height="2" x="4" y="12" ry="0.5"/><rect width="2" height="2" x="13" y="12" ry="0.5"/></svg>
