<svg viewBox="0 0 16 16" xmlns="http://www.w3.org/2000/svg" style="fill:#f9f9f9"><path d="M 7.3,1 C 6.9,1 6.6,1.3 6.5,1.7 L 6.3,3.3 4.8,4.1 3.3,3.5 C 2.9,3.4 2.4,3.6 2.3,3.9 L 1.6,5.1 c -0.2,0.3 -0.1,0.8 0.2,1 l 1.3,1.1 v 1.7 l -1.2,1 c -0.3,0.2 -0.4,0.7 -0.2,1 l 0.7,1.2 c 0.2,0.3 0.6,0.5 1,0.4 L 4.9,12 6.4,12.9 6.6,14.4 C 6.6,14.7 7,15 7.4,15 h 1.3 c 0.4,0 0.7,-0.3 0.8,-0.7 l 0.2,-1.5 1.5,-0.8 1.5,0.5 c 0.4,0.1 0.8,0 1,-0.4 l 0.7,-1.2 c 0.2,-0.3 0.1,-0.8 -0.2,-1 L 13,8.9 V 7.1 l 1.2,-1 c 0.3,-0.2 0.4,-0.7 0.2,-1 L 13.8,3.9 C 13.5,3.5 13.1,3.4 12.7,3.5 L 11.3,4.1 9.8,3.3 9.5,1.7 C 9.4,1.3 9.1,1 8.7,1 Z m 2.9,5.8 C 11.9,9.7 7.5,12.2 5.9,9.3 4.2,6.4 8.6,3.9 10.2,6.8 Z"/></svg>
