<svg viewBox="0 0 256 256" xmlns="http://www.w3.org/2000/svg" style="fill:#f9f9f9"><path d="M 77,34 C 64,34 51,47 51,60 v 144 c 0,13 13,26 26,26 h 102 c 13,0 26,-13 26,-26 V 60 C 205,47 192,34 179,34 Z m 90.5,16 c 14,0 21.5,7.5 21.5,21.5 v 121 c 0,14 -7.5,21.5 -21.5,21.5 h -79 C 74.5,214 67,206.5 67,192.5 V 71.5 C 67,57.5 74.5,50 88.5,50 Z M 91,66 c -10.5,0 -10.5,16 0,16 h 74 c 10.5,0 10.5,-16 0,-16 z m 27,31 -4,15.5 c -1,5 6.5,7 7.7,2 L 125,99 c 1,-5 -6.5,-7 -7.7,-2 z M 91,98 c -10.5,0 -10.5,16 0,16 h 10 c 10.5,0 10.5,-16 0,-16 z"/></svg>
