<svg viewBox="0 0 256 256" style="fill:#f9f9f9"><path d="M 73.5,4.5 C 50.5,27.5 27.5,50.5 4.5,73.5 c -6.5,6.5 -6.5,18 0,25 l 68,68 c 6.5,6.5 18,6.5 25,0 l 68,-68 c 6.5,-6.5 6.5,-18 0,-25 C 144.5,50.5 121.5,27.5 98.5,4.5 c -6,-6 -18,-6 -25,0 z m 22,13 57,57 c 6.5,6.5 6.5,14 0,20.5 l -57.5,57.5 c -6.5,6.5 -14,6.5 -20.5,0 L 18,96.5 c -6.5,-6.5 -6.5,-14 0,-20.5 l 41,-41 3.5,3.5 C 61,45 63.5,52 70.5,56 v 36 c -5,2 -8.5,8.5 -8.5,14.5 0,21.5 32.5,21.5 32.5,0 0,-5.5 -3,-11 -7,-14 V 62.5 l 12.5,12.5 c -2.5,9.5 4.5,20.5 15,20.5 9,0 16.5,-7.5 16.5,-16.5 0,-11.5 -11,-18.5 -20.5,-15.5 L 94.5,46 c 3.5,-12.5 -8,-23 -20,-20 L 70.5,23 75,18 c 6.5,-6.5 14,-6.5 20.5,0 z M 202,76 v 106 h -24 l 32,42 32,-42 H 218 V 76 c 0,-10.5 -16,-10.5 -16,0 z M 68,218.5 V 230 c 0,13 13,26 26,26 h 136 c 13,0 26,-13 26,-26 v -11.5 c 0,-8.5 -16,-8.5 -16,0 0,14 -7.5,21.5 -21.5,21.5 h -113 c -14,0 -21.5,-7.5 -21.5,-21.5 0,-8.5 -16,-8.5 -16,0 z"/></svg>
