<svg viewBox="0 0 256 256" xmlns="http://www.w3.org/2000/svg" style="fill:#f9f9f9"><path d="m 34,128 c 0,122 188,122 188,0 C 222,5 34,5 34,128 Z m 94,-75.5 c 7,8.5 14.5,22.5 18,39.5 H 110 c 3.5,-16 10,-31 18,-39.5 z m -20.5,0 C 100.5,63.5 95,77.5 93,92 H 58 C 68.5,73 86,58.5 107.5,52 Z m 41.5,0 C 169,58.5 187.5,73 197,92 H 162 C 160,77.5 155.5,63.5 148.5,52 Z m -96,55.5 h 38.5 c -1.5,18 -0.5,33 0,40 H 52.5 c -2.5,-9 -4.5,-23.5 0,-40 z m 54.5,0 h 41.5 c 1.5,14.5 1.5,27.5 0,40 h -41.5 c -1.5,-14.5 -1.5,-27.5 0,-40 z m 57,0 h 38.5 c 2.5,9 4.5,23.5 0,40 h -38.5 c 1.5,-18 0.5,-33 0,-40 z M 58,164 h 34.5 c 2.5,14.5 7.5,28.5 14,39 C 86,197.5 68.5,183 58,164 Z m 51,0 h 36 c -3,16 -10,31 -18,39.5 -7,-8.5 -14.5,-22.5 -18,-39.5 z m 53,0 h 34.5 c -9,19 -27.5,33.5 -48.5,39 6,-11 11.5,-24.5 14,-39 z"/></svg>
