<svg viewBox="0 0 256 256" xmlns="http://www.w3.org/2000/svg" style="fill:#f9f9f9"><path d="M 65.5,34 C 61.5,34 58,37.5 58,41.5 58,83.5 68.5,111 99,128 68.5,145 58,172.5 58,214.5 c 0,4 3.5,7.5 7.5,7.5 h 124 c 4,0 7.5,-3.5 7.5,-7.5 C 198,172.5 187.5,145 156,128 187.5,111 198,83.5 198,41.5 198,37.5 194.5,34 190.5,34 Z m 7,15 h 109 C 182,63.5 180.5,75.5 177,85 144,101 112,101 79,85 75.5,75.5 74,63.5 73.5,49 Z M 132,129 c 0,2 0.5,4 4,6 31,12 45,30 46.5,71 h -16.5 c -4.5,-8 -28,-38 -37,-38 -7,0 -35,30.5 -37,38 H 73.5 C 75,165 88,147 120,135 c 3,-1 4.5,-3.5 5,-6 2,1 5,1 7,0 z"/></svg>
