<svg viewBox="0 0 256 256" style="fill:#f9f9f9"><path d="M 26,1 C 13,0 0,13 0,26 v 144 c 0,13 13,26 26,26 h 102 c 13,0 26,-13 26,-26 V 69 L 85,0 V 0 C 65.5,0 45.5,-0.5 26,1 Z M 37.5,16 H 85 v 53 h 53 v 89.5 c 0,14 -7.5,21.5 -21.5,21.5 h -79 C 23.5,180 16,172.5 16,158.5 V 37.5 C 16,23.5 23.5,16 37.5,16 Z m 175,86.5 c -32.5,0 -43,22 -43,37.5 0,13 20.5,13 20.5,0 0,-19 19,-20.5 23.5,-20.5 25.5,0 25,25 20,35.5 -20.5,30.5 -30.5,20.5 -31,34 -0.5,13.5 0,16.5 0,16.5 -2.5,9 20.5,16 20.5,0 0,-8 -0,13 -0,-13 -0.5,-4 16,-6 29,-32.5 8,-18 5.5,-57 -38.5,-57 z M 213,225.5 c -19,0 -19,30.5 0,30.5 19,0 19,-30.5 0,-30.5 z"/></svg>
