<svg viewBox="0 0 256 256" style="fill:#f9f9f9"><path d="m 66,42 v 8.5 C 47.5,53 34,68.5 34,88 v 0 c 0.5,28.5 22.5,37 32,41 v 55 C 60,182 50,178 50,164 c 0,-10.5 -16,-10.5 -16,0 0,19.5 13,33 32,36.5 V 214 c 0,10.5 16,10.5 16,0 v -13 c 18,-3 32.5,-18 33,-37 V 162 C 116,131.5 94,122.5 82,118 V 66.5 c 6.5,1.5 16,6 17,19.5 0.5,10.5 16.5,10 16,-0.5 C 115.5,67.5 102,53.5 82,50.5 V 42 c 0,-10.5 -16,-10.5 -16,0 z m 0,24 v 44 C 40.5,99 46,72.5 66,66 Z M 175,100 v 20 h -39 c -10.5,0 -10.5,16 0,16 h 39 v 20 c 0,20 42,-20 42,-28 0,-8 -42,-47.5 -42,-28 z m -92,35.5 c 26.5,12.5 20.5,41.5 0,48 z"/></svg>
