<svg viewBox="0 0 256 256" style="fill:#f9f9f9"><path d="m 172,42 v 8.5 C 153.5,53 140,68.5 140,88 v 0 c 0.5,28.5 22.5,37 32,41 v 55 C 166,182 156,178 156,164 c 0,-10.5 -16,-10.5 -16,0 0,19.5 13,33 32,36.5 V 214 c 0,10.5 16,10.5 16,0 v -13 c 18,-3.5 32.5,-18 33,-37 V 162 c 0,-30.5 -22,-39.5 -33,-43 V 66.5 c 6.5,1.5 16,6 17,19.5 0.5,10.5 16.5,10 16,-0.5 C 221.5,67.5 208,53.5 188,50.5 V 42 c 0,-10.5 -16,-10.5 -16,0 z m 0,24 v 44 c -26,-12 -19,-39.5 0,-44 z M 81,100 v 20 H 42 c -10.5,0 -10.5,16 0,16 h 39 v 20 c 0,20 42,-20 42,-28 0,-8 -42,-47.5 -42,-28 z m 107,35.5 c 26.5,12.5 20.5,41.5 0,48 z"/></svg>
