<?xml version="1.0" encoding="UTF-8"?>
<!DOCTYPE svg PUBLIC "-//W3C//DTD SVG 1.1//EN" "http://www.w3.org/Graphics/SVG/1.1/DTD/svg11.dtd">
<svg xmlns="http://www.w3.org/2000/svg" version="1.1" width="100px" height="100px" style="shape-rendering:geometricPrecision; text-rendering:geometricPrecision; image-rendering:optimizeQuality; fill-rule:evenodd; clip-rule:evenodd" xmlns:xlink="http://www.w3.org/1999/xlink">
<g><path style="opacity:1" fill="#1a1a1a" d="M 34.5,3.5 C 44.5056,3.33352 54.5056,3.50019 64.5,4C 69.4476,4.30598 73.2809,6.47265 76,10.5C 77.3828,15.0801 78.3828,19.7468 79,24.5C 81.2806,41.7858 82.6139,59.1191 83,76.5C 79.5919,87.476 72.0919,93.6427 60.5,95C 46.8427,97.4831 34.1761,95.1498 22.5,88C 17.4018,82.7072 15.0684,76.3739 15.5,69C 17.2132,52.1547 19.0466,35.3214 21,18.5C 21.5545,9.78534 26.0545,4.78534 34.5,3.5 Z"/></g>
<g><path style="opacity:1" fill="#cfcfcf" d="M 46.5,34.5 C 46.5,36.8333 46.5,39.1667 46.5,41.5C 38.8333,41.5 31.1667,41.5 23.5,41.5C 24.4322,31.7467 25.9322,22.08 28,12.5C 29.9321,10.9617 32.0988,9.795 34.5,9C 38.8206,8.50098 43.1539,8.33432 47.5,8.5C 47.762,9.97782 47.4287,11.3112 46.5,12.5C 43.0605,15.2819 41.7271,18.9485 42.5,23.5C 41.7159,28.131 43.0492,31.7977 46.5,34.5 Z"/></g>
<g><path style="opacity:1" fill="#595959" d="M 74.5,33.5 C 74.5,36.1667 74.5,38.8333 74.5,41.5C 67.1667,41.5 59.8333,41.5 52.5,41.5C 52.5,39.1667 52.5,36.8333 52.5,34.5C 54.1436,33.6836 55.3103,32.3502 56,30.5C 56.6667,25.5 56.6667,20.5 56,15.5C 53.259,13.9326 52.0923,11.5993 52.5,8.5C 59.2553,7.56505 65.4219,8.89839 71,12.5C 72.9534,19.3651 74.1201,26.3651 74.5,33.5 Z"/></g>
<g><path style="opacity:1" fill="#f7f7f7" d="M 32.5,13.5 C 34.924,13.1924 37.2573,13.5258 39.5,14.5C 38.3857,19.4456 38.219,24.4456 39,29.5C 39.7261,32.6207 41.2261,35.2873 43.5,37.5C 38.1667,38.8333 32.8333,38.8333 27.5,37.5C 28.3128,29.2797 29.9795,21.2797 32.5,13.5 Z"/></g>
<g><path style="opacity:1" fill="#626262" d="M 46.5,14.5 C 49.0792,14.0833 51.2458,14.75 53,16.5C 53.6667,20.1667 53.6667,23.8333 53,27.5C 50.6667,30.1667 48.3333,30.1667 46,27.5C 45.2938,23.1132 45.4604,18.7799 46.5,14.5 Z"/></g>
<g><path style="opacity:1" fill="#737373" d="M 46.5,34.5 C 47.4731,36.9479 47.8064,39.6146 47.5,42.5C 39.3159,42.8257 31.3159,42.4924 23.5,41.5C 31.1667,41.5 38.8333,41.5 46.5,41.5C 46.5,39.1667 46.5,36.8333 46.5,34.5 Z"/></g>
<g><path style="opacity:1" fill="#373737" d="M 74.5,33.5 C 75.4767,36.2869 75.81,39.2869 75.5,42.5C 67.5,42.5 59.5,42.5 51.5,42.5C 51.1936,39.6146 51.5269,36.9479 52.5,34.5C 52.5,36.8333 52.5,39.1667 52.5,41.5C 59.8333,41.5 67.1667,41.5 74.5,41.5C 74.5,38.8333 74.5,36.1667 74.5,33.5 Z"/></g>
<g><path style="opacity:1" fill="#313131" d="M 22.5,47.5 C 40.5,47.5 58.5,47.5 76.5,47.5C 76.9598,54.6799 77.6265,61.8466 78.5,69C 77.8409,80.998 71.5075,87.998 59.5,90C 48.2128,91.9084 37.5462,90.2417 27.5,85C 23.0383,80.6202 20.7049,75.2869 20.5,69C 21.3735,61.8466 22.0402,54.6799 22.5,47.5 Z"/></g>
<g><path style="opacity:1" fill="#535353" d="M 26.5,64.5 C 38.1987,74.3664 51.1987,76.1998 65.5,70C 73.4376,62.4222 74.4376,63.4222 68.5,73C 57.5199,79.364 46.1865,80.0307 34.5,75C 30.0808,72.7579 27.4141,69.2579 26.5,64.5 Z"/></g>
</svg>
