<?xml version="1.0" encoding="UTF-8"?>
<!DOCTYPE svg PUBLIC "-//W3C//DTD SVG 1.1//EN" "http://www.w3.org/Graphics/SVG/1.1/DTD/svg11.dtd">
<svg xmlns="http://www.w3.org/2000/svg" version="1.1" width="100px" height="100px" style="shape-rendering:geometricPrecision; text-rendering:geometricPrecision; image-rendering:optimizeQuality; fill-rule:evenodd; clip-rule:evenodd" xmlns:xlink="http://www.w3.org/1999/xlink">
<g><path style="opacity:1" fill="#1a1a1a" d="M 34.5,3.5 C 44.5056,3.33352 54.5056,3.50019 64.5,4C 69.4476,4.30598 73.2809,6.47265 76,10.5C 77.3828,15.0801 78.3828,19.7468 79,24.5C 81.2806,41.7858 82.6139,59.1191 83,76.5C 79.5919,87.476 72.0919,93.6427 60.5,95C 46.8427,97.4831 34.1761,95.1498 22.5,88C 17.4018,82.7072 15.0684,76.3739 15.5,69C 17.2132,52.1547 19.0466,35.3214 21,18.5C 21.5545,9.78534 26.0545,4.78534 34.5,3.5 Z"/></g>
<g><path style="opacity:1" fill="#525252" d="M 34.5,8.5 C 38.5,8.5 42.5,8.5 46.5,8.5C 46.6567,9.87344 46.49,11.2068 46,12.5C 43.0545,15.526 41.8879,19.1927 42.5,23.5C 41.5698,28.3103 43.0698,31.977 47,34.5C 47.4974,37.146 47.6641,39.8127 47.5,42.5C 39.5,42.5 31.5,42.5 23.5,42.5C 24.5158,33.5016 25.6825,24.5016 27,15.5C 27.2735,13.6711 28.1068,12.1711 29.5,11C 31.4913,10.6264 33.158,9.79305 34.5,8.5 Z"/></g>
<g><path style="opacity:1" fill="#575757" d="M 52.5,8.5 C 59.2553,7.56505 65.4219,8.89839 71,12.5C 73.2225,22.3912 74.7225,32.3912 75.5,42.5C 67.5,42.5 59.5,42.5 51.5,42.5C 51.3359,39.8127 51.5026,37.146 52,34.5C 54,33.8333 55.3333,32.5 56,30.5C 56.6667,25.5 56.6667,20.5 56,15.5C 53.259,13.9326 52.0923,11.5993 52.5,8.5 Z"/></g>
<g><path style="opacity:1" fill="#636363" d="M 33.5,13.5 C 35.604,13.2011 37.604,13.5344 39.5,14.5C 38.7258,20.8005 38.8925,27.1338 40,33.5C 41.353,34.6853 42.5197,36.0186 43.5,37.5C 38.544,38.4941 33.544,38.8275 28.5,38.5C 28.7963,32.6293 29.4629,26.796 30.5,21C 30.6781,18.0711 31.6781,15.5711 33.5,13.5 Z"/></g>
<g><path style="opacity:1" fill="#f3f3f3" d="M 46.5,14.5 C 49.0792,14.0833 51.2458,14.75 53,16.5C 53.6667,20.1667 53.6667,23.8333 53,27.5C 50.6667,30.1667 48.3333,30.1667 46,27.5C 45.2938,23.1132 45.4604,18.7799 46.5,14.5 Z"/></g>
<g><path style="opacity:1" fill="#313131" d="M 22.5,47.5 C 40.5,47.5 58.5,47.5 76.5,47.5C 76.9598,54.6799 77.6265,61.8466 78.5,69C 77.8409,80.998 71.5075,87.998 59.5,90C 48.2128,91.9084 37.5462,90.2417 27.5,85C 23.0383,80.6202 20.7049,75.2869 20.5,69C 21.3735,61.8466 22.0402,54.6799 22.5,47.5 Z"/></g>
<g><path style="opacity:1" fill="#535353" d="M 26.5,64.5 C 38.1987,74.3664 51.1987,76.1998 65.5,70C 73.4376,62.4222 74.4376,63.4222 68.5,73C 57.5199,79.364 46.1865,80.0307 34.5,75C 30.0808,72.7579 27.4141,69.2579 26.5,64.5 Z"/></g>
</svg>
