<?xml version="1.0" encoding="UTF-8"?>
<!DOCTYPE svg PUBLIC "-//W3C//DTD SVG 1.1//EN" "http://www.w3.org/Graphics/SVG/1.1/DTD/svg11.dtd">
<svg xmlns="http://www.w3.org/2000/svg" version="1.1" width="100px" height="100px" style="shape-rendering:geometricPrecision; text-rendering:geometricPrecision; image-rendering:optimizeQuality; fill-rule:evenodd; clip-rule:evenodd" xmlns:xlink="http://www.w3.org/1999/xlink">
<g><path style="opacity:1" fill="#191919" d="M 34.5,3.5 C 44.5056,3.33352 54.5056,3.50019 64.5,4C 69.4476,4.30598 73.2809,6.47265 76,10.5C 77.3828,15.0801 78.3828,19.7468 79,24.5C 81.2806,41.7858 82.6139,59.1191 83,76.5C 79.5919,87.476 72.0919,93.6427 60.5,95C 46.8427,97.4831 34.1761,95.1498 22.5,88C 17.4018,82.7072 15.0684,76.3739 15.5,69C 17.2132,52.1547 19.0466,35.3214 21,18.5C 21.5545,9.78534 26.0545,4.78534 34.5,3.5 Z"/></g>
<g><path style="opacity:1" fill="#555555" d="M 46.5,34.5 C 46.5,36.8333 46.5,39.1667 46.5,41.5C 39.1667,41.5 31.8333,41.5 24.5,41.5C 24.5,38.8333 24.5,36.1667 24.5,33.5C 24.9204,26.3755 26.0871,19.3755 28,12.5C 33.5781,8.89839 39.7447,7.56505 46.5,8.5C 46.6567,9.87344 46.49,11.2068 46,12.5C 43.0545,15.526 41.8879,19.1927 42.5,23.5C 41.7159,28.131 43.0492,31.7977 46.5,34.5 Z"/></g>
<g><path style="opacity:1" fill="#555555" d="M 74.5,33.5 C 74.5,36.1667 74.5,38.8333 74.5,41.5C 67.1667,41.5 59.8333,41.5 52.5,41.5C 52.5,39.1667 52.5,36.8333 52.5,34.5C 54.1436,33.6836 55.3103,32.3502 56,30.5C 56.6667,25.5 56.6667,20.5 56,15.5C 53.259,13.9326 52.0923,11.5993 52.5,8.5C 59.2553,7.56505 65.4219,8.89839 71,12.5C 72.9534,19.3651 74.1201,26.3651 74.5,33.5 Z"/></g>
<g><path style="opacity:1" fill="#636363" d="M 33.5,13.5 C 35.604,13.2011 37.604,13.5344 39.5,14.5C 38.7258,20.8005 38.8925,27.1338 40,33.5C 41.353,34.6853 42.5197,36.0186 43.5,37.5C 38.544,38.4941 33.544,38.8275 28.5,38.5C 28.7963,32.6293 29.4629,26.796 30.5,21C 30.6781,18.0711 31.6781,15.5711 33.5,13.5 Z"/></g>
<g><path style="opacity:1" fill="#636363" d="M 59.5,14.5 C 61.2884,13.3775 63.2884,13.2109 65.5,14C 66.6667,14.5 67.5,15.3333 68,16.5C 69.3822,23.7736 70.2156,31.1069 70.5,38.5C 65.8333,38.5 61.1667,38.5 56.5,38.5C 57.3835,36.0905 58.5502,33.7571 60,31.5C 60.8184,25.6513 60.6517,19.9846 59.5,14.5 Z"/></g>
<g><path style="opacity:1" fill="#626262" d="M 46.5,14.5 C 49.0792,14.0833 51.2458,14.75 53,16.5C 53.6667,20.1667 53.6667,23.8333 53,27.5C 50.6667,30.1667 48.3333,30.1667 46,27.5C 45.2938,23.1132 45.4604,18.7799 46.5,14.5 Z"/></g>
<g><path style="opacity:1" fill="#373737" d="M 24.5,33.5 C 24.5,36.1667 24.5,38.8333 24.5,41.5C 31.8333,41.5 39.1667,41.5 46.5,41.5C 46.5,39.1667 46.5,36.8333 46.5,34.5C 47.4731,36.9479 47.8064,39.6146 47.5,42.5C 39.5,42.5 31.5,42.5 23.5,42.5C 23.19,39.2869 23.5233,36.2869 24.5,33.5 Z"/></g>
<g><path style="opacity:1" fill="#373737" d="M 74.5,33.5 C 75.4767,36.2869 75.81,39.2869 75.5,42.5C 67.5,42.5 59.5,42.5 51.5,42.5C 51.1936,39.6146 51.5269,36.9479 52.5,34.5C 52.5,36.8333 52.5,39.1667 52.5,41.5C 59.8333,41.5 67.1667,41.5 74.5,41.5C 74.5,38.8333 74.5,36.1667 74.5,33.5 Z"/></g>
<g><path style="opacity:1" fill="#252525" d="M 76.5,50.5 C 75.596,49.791 75.2627,48.791 75.5,47.5C 58.1667,47.5 40.8333,47.5 23.5,47.5C 23.7678,49.099 23.4345,50.4324 22.5,51.5C 22.5,49.8333 22.5,48.1667 22.5,46.5C 40.5,46.5 58.5,46.5 76.5,46.5C 76.5,47.8333 76.5,49.1667 76.5,50.5 Z"/></g>
<g><path style="opacity:1" fill="#313131" d="M 76.5,50.5 C 77.2478,56.8169 77.9145,63.1503 78.5,69.5C 77.6523,81.1884 71.319,88.0217 59.5,90C 51.778,90.8117 44.1113,90.4783 36.5,89C 26.2929,86.385 20.9595,79.885 20.5,69.5C 21.0036,63.4723 21.6703,57.4723 22.5,51.5C 23.4345,50.4324 23.7678,49.099 23.5,47.5C 40.8333,47.5 58.1667,47.5 75.5,47.5C 75.2627,48.791 75.596,49.791 76.5,50.5 Z"/></g>
<g><path style="opacity:1" fill="#535353" d="M 26.5,64.5 C 38.1987,74.3664 51.1987,76.1998 65.5,70C 73.4376,62.4222 74.4376,63.4222 68.5,73C 57.5199,79.364 46.1865,80.0307 34.5,75C 30.0808,72.7579 27.4141,69.2579 26.5,64.5 Z"/></g>
</svg>
