<svg viewBox="0 0 16 16" style="fill:#f9f9f9"><path d="M 6.8,6.4 H 4.3 c -1.2,0 -1.2,1.8 0,1.8 H 6.5 L 6,12.3 C 5.8,13.6 3.3,13.6 2.6,12.4 2,11.4 0.5,12.3 1.1,13.3 2.8,15.9 7.3,15.4 7.7,12.5 L 8.3,8.1 h 2.3 c 1.2,0 1.2,-1.8 0,-1.8 H 8.5 L 8.8,3.7 C 9,2.4 11.4,2.4 12.2,3.6 c 0.6,1 2,0.1 1.5,-0.9 C 12.1,0 7.6,0.6 7.2,3.5 Z m 4.6,6.1 -1.1,1.1 c -0.7,0.7 0.4,1.9 1.2,1.2 l 1.1,-1.1 1.1,1.1 c 0.7,0.7 1.9,-0.4 1.2,-1.2 l -1.1,-1.1 1,-1.1 c 0.6,-0.8 -0.5,-1.9 -1.3,-1.2 l -1,1.1 -1.1,-1 c -0.7,-0.8 -1.9,0.4 -1.1,1.1 z"/></svg>
