<svg viewBox="0 0 16 16" xmlns="http://www.w3.org/2000/svg" style="fill:#f9f9f9"><path d="M 3.5,14.6 C 4.3,15.5 5.7,14.4 4.9,13.4 2,9.9 2,5.9 4.9,2.4 5.7,1.5 4.2,0.3 3.5,1.2 0.2,5.3 0.1,10.1 3.5,14.6 Z m 7.6,-1.1 c -0.8,0.9 0.7,2.1 1.4,1.1 3.3,-4.1 3.3,-9.3 0,-13.4 -0.7,-0.9 -2.2,0.3 -1.4,1.2 2.8,3.6 2.7,7.5 0,11.1 z M 6.8,8 4.7,10.5 c -0.8,0.9 0.7,2.1 1.4,1.2 L 8,9.5 9.9,11.7 c 0.8,0.9 2.2,-0.2 1.4,-1.2 L 9.2,8 11.3,5.5 C 12.1,4.6 10.6,3.4 9.9,4.3 L 8.1,6.6 6.2,4.4 C 5.4,3.5 4,4.6 4.8,5.6 Z"/></svg>
