<svg viewBox="0 0 256 256" style="fill:#f9f9f9"><path d="M 2,12.5 75.5,86 2,159.5 c -6,6 3.5,17 10.5,10.5 L 91,91 c 2.5,-2.5 3,-7 0,-10.5 L 12.5,2 C 5.5,-4.5 -4.5,5.5 2,12.5 Z m 211.5,90 c -32.5,0 -43,22 -43,37.5 0,13 20.5,13 20.5,0 0,-19 19,-20.5 23.5,-20.5 25.5,0 25,25 20,35.5 -20.5,30.5 -30.5,20.5 -31,34 -0,4.5 -0.5,16.5 0.5,17.5 1.5,12.5 20,11.5 20,-1 0,-3 -0,8 -0,-13 -0.5,-4 16,-6 29,-32.5 8,-18 5,-57 -38.5,-57 z M 76,157.5 c -9.5,0 -9.5,14.5 0,14.5 h 79 c 9.5,0 9.5,-14.5 0,-14.5 z M 213,225.5 c -19,0 -19,30.5 0,30.5 19,0 19,-30.5 0,-30.5 z"/></svg>
