<svg viewBox="0 0 256 256" style="fill:#f9f9f9"><path d="m 43.5,46.5 c 5.5,7 9.5,15 13,25.5 H 50 c -10.5,0 -10.5,16 0,16 h 11.5 c 6,25.5 6,54.5 0,80 H 50 c -10.5,0 -10.5,16 0,16 h 6.5 c -3.5,9.5 -7,18 -13,25.5 -4.5,5 1,14 8,12.5 62.5,-13.5 81,-25.5 104.5,-77 12,13 34.5,9 40.5,-8 3,0.5 6.5,0 9.5,0 10.5,0 10.5,-16 0,-16 -3,0 -6.5,-0.5 -9.5,0 -6,-17 -28.5,-21 -40.5,-8 C 133.5,59 114.5,47.5 51.5,34 44,32 39,40.5 43.5,46.5 Z M 66.5,54 c 46.5,11 58.5,24 79,74 -20.5,50 -32.5,62 -79,73 C 87,159 87,96.5 66.5,54 Z M 174,116 c 15.5,0 15.5,24 0,24 -15.5,0 -15.5,-24 0,-24 z" /></svg>
