<svg viewBox="0 0 256 256" xmlns="http://www.w3.org/2000/svg" style="fill:#f9f9f9"><path d="M 35.5,46.5 C 40,53 45,62.5 48.5,72 22,72 36.5,88 42,88 h 11.5 c 6,25.5 6,54.5 0,80 H 42 c -10.5,0 -10.5,16 0,16 h 6.5 c -3.5,9.5 -7,18 -13,25.5 -6,8.5 6,17 12,9.5 7.5,-10 13,-21 17,-34.5 h 15 c -3.5,9.5 -7,18 -13,25.5 -4.5,5 1,14 8,12.5 62.5,-13.5 81,-25.5 104.5,-77 12,13 34.5,9 40.5,-8 3,0.5 6,0 9.5,0 10.5,0 10.5,-16 0,-16 -3,0 -6.5,-0.5 -9.5,0 -6,-17 -28.5,-21 -40.5,-8 C 157.5,59 138.5,47.5 75.5,34 68.5,32.5 63,40 67.5,46.5 72,53 77,62.5 80.5,72 h -15 C 61.5,59 55,47.5 48.5,37.5 42.5,28 29.5,38 35.5,46.5 Z M 90.5,54 c 46.5,11 58.5,24 79,74 -20.5,50 -32.5,62 -79,73 20,-42.5 20,-105 0,-147 z M 69,88 h 15.5 c 6,25.5 6,54.5 0,80 H 69 c 5.5,-25.5 5.5,-54 0,-80 z M 198,116 c 15.5,0 15.5,24 0,24 -15.5,0 -15.5,-24 0,-24 z" /></svg>
