<svg viewBox="0 0 256 256" style="fill:#f9f9f9"><path d="m 35.5,46.5 c 5.5,7 9.5,15 13,25.5 H 42 c -10.5,0 -10.5,16 0,16 h 11.5 c 6,25.5 6,54.5 0,80 H 42 c -10.5,0 -10.5,16 0,16 h 6.5 c -3.5,9.5 -7,18 -13,25.5 -6,8.5 6,17 12,9.5 7.5,-10 13,-21 17,-34.5 h 15 c -3.5,9.5 -7,18 -13,25.5 -4.5,5 1,14 8,12.5 66.5,-14 83,-27 107,-85 H 194 c 10.5,0 10.5,-16 0,-16 H 183.5 C 159.5,61.5 142,48.5 75.5,34 c -7,-1.5 -12.5,6.5 -8,12.5 5,7 9.5,15 13,25.5 h -15 C 61.5,59 55,47.5 48.5,37.5 42.5,28 29.5,38 35.5,46.5 Z M 90.5,54 c 46.5,11 58.5,24 79,74 -20.5,50 -32.5,62 -79,73 20,-42.5 20,-105 0,-147 z M 69,88 h 15.5 c 6,25.5 6,54.5 0,80 H 69 c 5.5,-25.5 5.5,-54 0,-80 z"/></svg>
