<svg viewBox="0 0 256 256" xmlns="http://www.w3.org/2000/svg" style="fill:#f9f9f9"><path d="m 89,52 v 52 c 0,10.5 15,10.5 15,0 0,-26 6.5,-44 23,-44 23,-0.5 22,27 23,44 0,10.5 15,10.5 15,0 0,-20.5 -0,-60 -39,-60 -9,0 -16,3.5 -23,8 V 51 C 104,41.5 89,41.5 89,51 Z m -8,83.5 c -9.5,4 -3,18 6.5,14.5 46.5,-20.5 77,-8 96.5,13.5 l -14.5,14.5 c -14,14 44,15.5 49.5,10 5.5,-5.5 4,-64 -10,-49 l -13,13 c -40.5,-43 -93.5,-26 -114.5,-17 z m 15.5,39 13.5,13.5 C 87,206 66,209 43,204 33.5,201.5 30,217.5 40,219.5 c 26,5 54,1 80.5,-20.5 l 15,15 c 14,14 15.5,-44 10,-49 -5.5,-5.5 -64,-4.5 -49.5,10 z"/></svg>
