<svg viewBox="0 0 256 256" xmlns="http://www.w3.org/2000/svg" style="fill:#f9f9f9"><path d="m 104,34 c -10.5,0 -10.5,16 0,16 h 16 v 50 c 0,10.5 16,10.5 16,0 V 50 h 16 c 10.5,0 10.5,-16 0,-16 z M 80,135 c -9.5,4 -3,18 6.5,14.5 46.5,-20.5 77,-8 96.5,13.5 l -14.5,14.5 c -14,14 44,15.5 49.5,10 5.5,-5.5 4,-64 -10,-49 l -13,13 C 154.5,109 101.5,126 80,135 Z m 15.5,39 13.5,13.5 C 87,206 66,209 43,203 33.5,201.5 30,217 40,219.5 c 26,5 54,1 80.5,-20.5 l 15,15 c 14,14 15.5,-44 10,-49 -5.5,-5.5 -64,-4.5 -49.5,10 z"/></svg>
