<svg viewBox="0 0 256 256"
     xmlns="http://www.w3.org/2000/svg"><defs
     id="defs1"><linearGradient
       id="0"><stop
         style="stop-color:#d34242"
         offset="0.547"/><stop
         style="stop-color:#a62626"
         offset="0.595"/></linearGradient><linearGradient
       id="1"><stop
         style="stop-color:#d34242"
         offset="0.54"/><stop
         style="stop-color:#e17a7a"
         offset="0.584"/><stop
         style="stop-color:#d85555"
         offset="0.601"/></linearGradient><linearGradient
       id="2"><stop
         style="stop-color:#566a76"
         offset="0.55"/><stop
         style="stop-color:#39414c"
         offset="0.612"/></linearGradient><linearGradient
       id="3"><stop
         style="stop-color:#566a76"
         offset="0.525"/><stop
         style="stop-color:#778e9c"
         offset="0.59"/><stop
         style="stop-color:#607985"
         offset="0.603"/></linearGradient><linearGradient
       id="4"><stop
         style="stop-color:#f8b340"
         offset="0.547"/><stop
         style="stop-color:#e99407"
         offset="0.595"/></linearGradient><linearGradient
       id="5"><stop
         style="stop-color:#f8b340"
         offset="0.54"/><stop
         style="stop-color:#f8cf86"
         offset="0.584"/><stop
         style="stop-color:#f8bd59"
         offset="0.601"/></linearGradient><linearGradient
       id="6"><stop
         style="stop-color:#9b4cbe"
         offset="0.547"/><stop
         style="stop-color:#73358d"
         offset="0.595"/></linearGradient><linearGradient
       id="7"><stop
         style="stop-color:#9b4cbe"
         offset="0.54"/><stop
         style="stop-color:#b782cf"
         offset="0.584"/><stop
         style="stop-color:#a55fc4"
         offset="0.601"/></linearGradient><linearGradient
       id="8"><stop
         style="stop-color:#3fcfeb"
         offset="0.54"/><stop
         style="stop-color:#80d5ef"
         offset="0.584"/><stop
         style="stop-color:#57d3eb"
         offset="0.601"/></linearGradient><linearGradient
       id="9"><stop
         style="stop-color:#3fcfeb"
         offset="0.547"/><stop
         style="stop-color:#14abcc"
         offset="0.595"/></linearGradient><linearGradient
       href="#9"
       id="10"
       x1="23.5"
       y1="3"
       x2="23.5"
       y2="14.5"
       gradientUnits="userSpaceOnUse"
       gradientTransform="matrix(8,0,0,8,-31.5,-26.5)" /><linearGradient
       href="#8"
       id="11"
       gradientUnits="userSpaceOnUse"
       x1="23.5"
       y1="14.5"
       x2="23.5"
       y2="3"
       gradientTransform="matrix(8,0,0,8,-31.5,-41.5)" /><linearGradient
       href="#6"
       id="12"
       gradientUnits="userSpaceOnUse"
       x1="23.5"
       y1="3"
       x2="23.5"
       y2="14.5"
       gradientTransform="matrix(8,0,0,8,23.5,41.5)" /><linearGradient
       href="#7"
       id="13"
       gradientUnits="userSpaceOnUse"
       gradientTransform="matrix(8,0,0,8,23,25.5)"
       x1="23.5"
       y1="14.5"
       x2="23.5"
       y2="3" /><linearGradient
       href="#4"
       id="14"
       gradientUnits="userSpaceOnUse"
       x1="23.5"
       y1="3"
       x2="23.5"
       y2="14.5"
       gradientTransform="matrix(8,0,0,8,16.5,100.5)" /><linearGradient
       href="#5"
       id="15"
       gradientUnits="userSpaceOnUse"
       gradientTransform="matrix(8,0,0,8,16,84.5)"
       x1="23.5"
       y1="14.5"
       x2="23.5"
       y2="3" /><linearGradient
       href="#2"
       id="16"
       gradientUnits="userSpaceOnUse"
       gradientTransform="matrix(20,0,0,20,-353.5,-39)"
       x1="23.5"
       y1="3"
       x2="23.5"
       y2="14.5" /><linearGradient
       href="#3"
       id="17"
       gradientUnits="userSpaceOnUse"
       gradientTransform="matrix(20,0,0,20,-353.5,-75)"
       x1="23.5"
       y1="14.5"
       x2="23.5"
       y2="3" /><linearGradient
       href="#0"
       id="18"
       gradientUnits="userSpaceOnUse"
       gradientTransform="matrix(8,0,0,8,-44.5,159.5)"
       x1="23.5"
       y1="3"
       x2="23.5"
       y2="14.5" /><linearGradient
       href="#1"
       id="19"
       gradientUnits="userSpaceOnUse"
       gradientTransform="matrix(8,0,0,8,-44.5,144.5)"
       x1="23.5"
       y1="14.5"
       x2="23.5"
       y2="3" /></defs><rect
     style="fill:url(#14)"
     width="80"
     height="17"
     x="161"
     y="161"
     ry="6" /><rect
     style="fill:url(#15)"
     width="80"
     height="17"
     x="161"
     y="146"
     ry="6" /><rect
     style="fill:#f8b340"
     width="80"
     height="26"
     x="161"
     y="149"
     ry="6" /><circle
     style="opacity:0.38;fill:#000000"
     cy="163"
     cx="171"
     r="6" /><circle
     style="fill:#f8f8f9"
     cy="162"
     cx="171"
     r="6" /><rect
     style="fill:url(#12)"
     width="80"
     height="17"
     x="168"
     y="102"
     ry="6" /><rect
     style="fill:url(#13)"
     width="80"
     height="17"
     x="168"
     y="87"
     ry="6" /><rect
     style="fill:#9b4cbe"
     width="80"
     height="26"
     x="168"
     y="90"
     ry="6" /><circle
     style="opacity:0.38;fill:#000000"
     cy="104"
     cx="178"
     r="6" /><circle
     style="fill:#f8f8f9"
     cy="103"
     cx="178"
     r="6" /><rect
     style="fill:url(#18)"
     width="89"
     height="17"
     x="100"
     y="221"
     ry="6" /><rect
     style="fill:url(#19)"
     width="89"
     height="17"
     x="100"
     y="206"
     ry="6" /><rect
     style="fill:#d34242"
     width="89"
     height="26"
     x="100"
     y="209"
     ry="6" /><circle
     style="opacity:0.38;fill:#000000"
     cy="223"
     cx="110"
     r="6" /><circle
     style="fill:#f8f8f9"
     cy="222"
     cx="110"
     r="6" /><rect
     style="fill:url(#10)"
     width="89"
     height="17"
     x="113"
     y="35"
     ry="6" /><rect
     style="fill:url(#11)"
     width="89"
     height="17"
     x="113"
     y="20"
     ry="6" /><rect
     style="fill:#3fcfeb"
     width="89"
     height="26"
     x="113"
     y="23"
     ry="6" /><circle
     style="opacity:0.38;fill:#000000"
     cy="37"
     cx="123"
     r="6" /><circle
     style="fill:#f8f8f9"
     cy="36"
     cx="123"
     r="6" /><rect
     style="fill:url(#16)"
     width="128"
     height="43"
     x="8"
     y="116"
     ry="15" /><rect
     style="fill:url(#17)"
     width="128"
     height="42.5"
     x="8"
     y="80"
     ry="15" /><rect
     style="fill:#566a76"
     width="128"
     height="73.5"
     x="8"
     y="82"
     ry="15" /><rect
     style="fill:#a4df8e"
     width="31"
     height="10"
     x="52"
     y="130"
     ry="0" /><path
     style="fill:#a3df8e"
     d="m 34.3,135.1 c -6.7,0 -9,-3.6 -10.5,-6.9 l 5.8,-3.8 c 0.7,2 2,4.2 4.7,4.6 v -8 c -13.7,-1.6 -15.3,-17.8 0,-19.2 v -4 h 3.4 v 3.9 c 3.8,0.5 7.3,2.6 8.9,5.1 l -4.4,5.6 c -1.3,-2.3 -2.7,-3.3 -4.5,-3.5 v 6 c 8.4,3.2 10.9,5.6 10.9,10.5 0,7.6 -7.4,9.2 -10.9,9.6 v 5.3 h -3.4 z m 0,-26.4 c -4.4,0 -4.6,2.7 0,4.9 z m 3.4,20.2 c 3.4,-0.6 5.8,-3.7 0,-6.4 z"/><rect
     style="fill:#b393c4"
     width="6"
     height="22"
     x="202"
     y="121.5"
     ry="3" /><rect
     style="fill:#b393c4"
     width="6"
     height="27"
     x="100"
     y="-166"
     ry="3"
     transform="rotate(90)" /><path
     style="fill:none;stroke:#a0c493;stroke-width:6;stroke-linecap:round"
     d="M 106.3,36.1 C 84.4,36.2 68.9,52.8 68.7,73.9"/></svg>
